<svg width="500" height="500" viewBox="0 0 500 500" fill="none" xmlns="http://www.w3.org/2000/svg">
<path d="M138.142 172H232.934L232.888 194.368L138.155 194.35L138.142 172Z" fill="#222222"/>
<path d="M232.649 214.691C233.288 215.596 232.925 233.965 232.95 237.047H160.534L160.569 257.856L232.973 257.843L232.892 280.219L160.554 280.239L160.571 300.651C161.644 300.915 163.068 300.746 164.178 300.746L232.975 300.733L232.887 323.101L138.15 323.094L138.148 214.745L232.649 214.691Z" fill="#222222"/>
<path d="M58.4796 328C55.4527 327.508 52.3571 327.604 49.3051 327.079C37.1514 324.986 25.8576 319.27 17.1147 310.514C6.08073 299.464 -0.00403676 284.594 2.00926e-06 268.985C0.00403293 253.412 6.08148 238.536 17.0835 227.51C28.2668 216.302 43.3761 210.114 59.1834 210.152C74.716 210.189 89.7787 216.518 100.723 227.564C106.535 233.43 111.582 240.859 114.182 248.749L88.3555 248.754C81.8256 240.268 73.7575 234.859 63.0133 233.454C53.8133 232.251 44.141 235.15 36.84 240.803C29.5207 246.47 24.567 255.169 23.4094 264.361C22.2146 273.848 24.7617 283.366 30.62 290.93C36.4913 298.512 45.1117 303.311 54.5857 304.497C63.6774 305.634 73.2751 303.092 80.5143 297.428C85.0189 293.903 88.4246 289.66 91.0257 284.57L59.4087 284.604L59.404 262.275C64.7156 262.256 116.721 261.984 117.277 262.386C117.575 265.739 117.905 269.025 117.744 272.399C117.149 284.898 112.107 297.168 104.134 306.731C94.1951 318.652 79.6951 326.214 64.2752 327.576C62.8261 327.704 60.9045 327.583 59.5582 328H58.4796Z" fill="#222222"/>
<path d="M253.43 214.707L361.851 214.712L361.859 323.182C361.189 323.6 357.926 323.315 356.917 323.314L339.613 323.307L339.586 237.233L318.931 237.247L318.929 323.097L296.55 323.097L296.531 237.237L275.823 237.238L275.834 323.093L253.426 323.103L253.43 214.707Z" fill="#222222"/>
<path d="M436.753 328C434.28 327.582 431.78 327.371 429.323 326.838C417.901 324.36 407.539 318.93 399.254 310.613C388.233 299.545 382.164 284.614 382.188 269.003C382.213 253.35 388.509 238.447 399.568 227.422C410.738 216.285 425.9 210.295 441.592 210.357C457.163 210.418 472.148 216.83 483.099 227.906C494.202 239.136 500.074 254.051 499.999 269.815C499.925 285.273 493.535 300.123 482.604 310.986C475.005 318.536 465.201 323.992 454.78 326.441L449.128 327.478C448.041 327.627 446.699 327.657 445.666 328H436.753ZM437.522 233.608C427.961 234.699 419.244 239.19 413.191 246.798C407.182 254.353 404.502 263.734 405.573 273.342C406.613 282.656 411.496 291.35 418.804 297.176C426.097 302.989 435.356 305.614 444.614 304.78C454.615 303.501 463.258 299.006 469.487 290.944C475.052 283.737 477.796 274.209 476.642 265.138C475.382 255.219 470.578 246.729 462.65 240.616C455.408 235.033 446.534 232.871 437.522 233.608Z" fill="#222222"/>
</svg>
