<svg xmlns="http://www.w3.org/2000/svg" height="800" width="1200" viewBox="-36 -58.75125 312 352.5075"><path d="M77.365 35.142L112.519 0h110.099l-87.823 87.744 87.823 87.656H112.519l-35.154-35.053V175.4H0V0h77.365zM44.542 198.435L28.23 213.888h.179l18.139 20.158h-17.66l-15.932-18.709v18.709H0v-47.607h12.956v27.259l15.932-15.263zm3.657 0h12.465v6.434c3.936-6.522 9.22-7.671 13.925-7.671 5.363 0 9.209 3.445 11.239 7.972 3.255-5.485 9.209-7.972 14.204-7.972 7.96-.101 14.795 4.693 14.795 15.252v21.597h-12.398v-20.158c0-5.084-3.746-7.492-6.913-7.582-3.657 0-7.782 3.646-7.782 8.162v19.578H75.258v-20.158c0-3.835-1.929-7.582-6.433-7.582-3.167 0-7.771 2.966-7.771 10.079v17.661H48.199zm117.402 0h12.376v7.492c2.408-7.392 9.221-8.729 17.571-8.072v11.139c-4.604-.379-8.44-.189-11.417 1.06-3.077 1.338-5.664 4.504-5.664 7.972v16.021h-12.866zm32.734-11.996h12.777v11.327h10.547v11.228h-10.547v12.298c0 4.683 3.434 5.173 10.547 3.824v8.462c-13.145 2.688-23.324 1.048-23.324-12.677zm38.398 46.09l1.628-5.106H240v6.344h-1.048v-5.185l-1.639 5.185h-1.059l-1.616-5.185v5.185h-.982v-6.344h1.538zm-4.404-3.278h-1.059a.912.912 0 00-.391-.769c-.29-.189-.568-.279-1.06-.279-.278 0-.579 0-.858.179-.189.2-.29.379-.29.591 0 .278.101.457.29.558.189.212.58.39 1.26.49.937.279 1.517.479 1.896.78.302.279.401.658.401 1.138 0 .591-.189 1.06-.669 1.449-.479.379-1.07.568-1.828.568-.87 0-1.449-.189-1.918-.568-.49-.39-.669-.97-.78-1.639h1.048c.101.379.201.669.491.959.289.189.68.29 1.248.29.379 0 .669-.101.87-.19.29-.189.39-.39.39-.68 0-.089 0-.189-.1-.379-.112-.111-.201-.179-.29-.29-.201-.201-.58-.29-1.16-.479h-.278c-.68-.179-1.26-.479-1.539-.77a1.607 1.607 0 01-.479-1.159c0-.469.289-.959.669-1.227.479-.401 1.048-.49 1.828-.49.669 0 1.249.089 1.628.49.468.379.68.848.68 1.427m-72.203 4.795h-12.275v-5.464c-2.787 3.546-7.213 6.423-13.735 6.423-7.393 0-15.364-2.297-15.174-11.618 0-13.535 19.5-11.707 28.598-11.896 0-4.426-2.286-7.013-6.901-7.013-3.735 0-6.522 1.828-6.522 3.925h-12.878c0-7.27 9.232-11.205 19.59-11.205 12.866 0 19.299 4.604 19.299 13.624v23.224zm-12.587-15.654c-3.925.201-17.069-1.427-17.069 4.917 0 2.576 2.218 4.025 5.853 4.025 5.083-.09 11.037-3.345 11.216-8.942" fill="#E82E2C" clip-rule="evenodd" fill-rule="evenodd"/></svg>