<?xml version="1.0" encoding="utf-8"?>
<!-- Generator: Adobe Illustrator 15.0.0, SVG Export Plug-In . SVG Version: 6.00 Build 0)  -->
<!DOCTYPE svg PUBLIC "-//W3C//DTD SVG 1.1//EN" "http://www.w3.org/Graphics/SVG/1.1/DTD/svg11.dtd">
<svg version="1.1" xmlns="http://www.w3.org/2000/svg" xmlns:xlink="http://www.w3.org/1999/xlink" x="0px" y="0px" width="360px"
	 height="131px" viewBox="0 0 360 131" enable-background="new 0 0 360 131" xml:space="preserve">
<g id="Layer_1">
	<g id="Background">
	</g>
	<g id="Guides">
	</g>
</g>
<g id="Foreground">
	<path fill-rule="evenodd" clip-rule="evenodd" fill="#1D1D1B" d="M287.762,82.482c2.636,2.398,6.711,3.835,10.626,3.835
		c2.795,0,4.952-1.357,4.952-3.275c0-5.831-18.773-3.754-18.773-16.217c0-7.43,7.19-12.062,14.86-12.062
		c5.03,0,10.544,1.917,13.101,3.915l-4.872,7.509c-1.998-1.438-4.634-2.636-7.432-2.636c-2.874,0-5.271,1.119-5.271,3.116
		c0,5.033,18.772,3.036,18.772,16.455c0,7.43-7.27,11.984-15.416,11.984c-5.354,0-11.026-1.838-15.578-5.194L287.762,82.482z
		 M261.566,69.941c-0.318-3.437-3.437-6.791-7.667-6.791c-4.316,0-7.829,3.275-8.309,6.791H261.566z M271.233,88.155
		c-3.754,4.473-9.905,6.95-15.898,6.95c-11.582,0-20.291-7.989-20.291-20.132c0-10.784,7.352-20.211,18.855-20.211
		c10.703,0,18.293,9.028,18.293,19.812c0,1.039-0.079,2.077-0.241,2.956h-26.84c0.56,5.434,4.952,9.187,10.465,9.187
		c4.393,0,7.908-2.477,9.744-4.473L271.233,88.155z M220.668,94.307h-10.385V55.562h10.385V94.307z M215.476,35.191
		c3.754,0,6.79,2.876,6.79,6.63c0,3.755-3.036,6.631-6.79,6.631s-6.79-2.876-6.79-6.631
		C208.686,38.067,211.722,35.191,215.476,35.191z M194.313,94.307c-1.358,0.479-4.475,0.799-6.472,0.799
		c-6.231,0-10.785-2.077-13.421-5.593c-1.996-2.636-2.875-6.071-2.875-11.583V64.349h-10.784v-8.788h10.784V44.777h10.385v10.784
		h12.78v8.788h-12.78v14.78c0,2.396,0.4,3.833,1.277,4.872c1.039,1.197,2.719,1.918,5.274,1.918c1.516,0,3.514-0.241,4.231-0.4
		L194.313,94.307z M149.981,46.375c-0.88-0.239-2.157-0.399-3.116-0.399c-2.557,0-4.553,0.719-5.831,2.237
		c-0.879,1.118-1.438,2.557-1.438,6.15v1.198h11.983v8.788h-11.983v29.957H129.21V64.35h-9.985v-8.788h9.985v-1.597
		c0-6.231,1.438-9.986,4.154-12.623c2.716-2.636,6.791-4.553,12.062-4.553c2.077,0,3.995,0.16,6.152,0.719L149.981,46.375z
		 M98.622,69.941c-0.32-3.437-3.436-6.791-7.67-6.791c-4.313,0-7.829,3.275-8.308,6.791H98.622z M108.288,88.155
		c-3.755,4.473-9.907,6.95-15.898,6.95c-11.583,0-20.29-7.989-20.29-20.132c0-10.784,7.349-20.211,18.852-20.211
		c10.706,0,18.293,9.028,18.293,19.812c0,1.039-0.08,2.077-0.24,2.956H82.164c0.559,5.434,4.954,9.187,10.465,9.187
		c4.394,0,7.908-2.477,9.747-4.473L108.288,88.155z M57.723,94.307H47.338V37.588h10.385V94.307z"/>
</g>
</svg>
