<?xml version="1.0" encoding="UTF-8"?>
<svg xmlns="http://www.w3.org/2000/svg" id="a" width="270" height="180" viewBox="0 0 270 180">
  <rect x="59.2" y="36.7" width="151.6" height="107.1" fill="#2b487d" stroke-width="0"></rect>
  <path d="m148.93,83.98c-.67,0-1.21.54-1.21,1.21v11.31c0,.67.54,1.21,1.21,1.21s1.21-.54,1.21-1.21v-11.31c0-.67-.54-1.21-1.21-1.21" fill="#fff" stroke-width="0"></path>
  <path d="m172.06,83.98c-.67,0-1.21.54-1.21,1.21v11.31c0,.67.54,1.21,1.21,1.21s1.21-.54,1.21-1.21v-11.31c0-.67-.54-1.21-1.21-1.21" fill="#fff" stroke-width="0"></path>
  <path d="m150.92,80.24c-.67,0-1.21.54-1.21,1.21s.54,1.21,1.21,1.21,1.21-.54,1.21-1.21-.54-1.21-1.21-1.21" fill="#fff" stroke-width="0"></path>
  <path d="m148.14,81.45c0-.67-.54-1.21-1.21-1.21s-1.21.54-1.21,1.21.55,1.21,1.21,1.21,1.21-.54,1.21-1.21" fill="#fff" stroke-width="0"></path>
  <path d="m172.07,82.66c.67,0,1.21-.54,1.21-1.21s-.54-1.21-1.21-1.21-1.21.54-1.21,1.21.54,1.21,1.21,1.21" fill="#fff" stroke-width="0"></path>
  <path d="m127.83,95.42l-7.71-5.03,7.56-3.88c.58-.33.77-1.07.44-1.65-.21-.37-.61-.6-1.05-.6-.21,0-.42.06-.6.16l-8.94,4.68v-3.88c0-.66-.54-1.21-1.2-1.21s-1.21.54-1.21,1.21v11.25c0,.66.54,1.2,1.21,1.2s1.2-.54,1.2-1.2v-3.36c0-.45.38-.82.83-.82.11,0,.22.02.33.07h0s7.93,5.15,7.93,5.15c.18.11.39.16.6.16.43,0,.83-.23,1.04-.6.16-.28.2-.6.12-.91-.08-.31-.28-.57-.56-.73" fill="#fff" stroke-width="0"></path>
  <path d="m108.78,84.02h-8.12c-2.17,0-3.94,1.77-3.94,3.94v5.75c0,2.17,1.77,3.94,3.94,3.94h8.12c2.17,0,3.94-1.77,3.94-3.94v-5.75c0-2.17-1.77-3.94-3.94-3.94m1.54,9.42c0,1.02-.83,1.86-1.86,1.86h-7.49c-1.02,0-1.86-.83-1.86-1.86v-5.2c0-1.02.83-1.86,1.86-1.86h7.49c1.02,0,1.86.83,1.86,1.86v5.2Z" fill="#fff" stroke-width="0"></path>
  <path d="m167.22,80.24c-.67,0-1.21.54-1.21,1.21v2.81h-9.5c-2.14,0-3.88,1.74-3.88,3.88v5.66c0,2.14,1.74,3.88,3.88,3.88h8.04c2.14,0,3.87-1.74,3.87-3.88v-12.34c0-.66-.55-1.21-1.21-1.21m-2.97,15.04h-7.42c-.97,0-1.76-.79-1.76-1.77v-5.11c0-.97.79-1.76,1.76-1.76h9.19v6.88c0,.97-.79,1.77-1.77,1.77" fill="#fff" stroke-width="0"></path>
  <path d="m141.39,84.25h-9.01c-.42,0-.8.21-1.02.57-.12.19-.18.41-.18.63,0,.66.54,1.19,1.19,1.19h8.7c.97,0,1.77.79,1.77,1.76v.83h-9.44c-.44,0-.88.08-1.3.22-1.59.56-2.58,1.92-2.58,3.54v.92c0,2.11,1.7,3.76,3.88,3.76h7.99c2.14,0,3.88-1.74,3.88-3.88v-5.66c0-2.14-1.74-3.88-3.88-3.88m1.45,9.26c0,.97-.79,1.76-1.77,1.76h-7.48c-.97,0-1.65-.68-1.65-1.65v-.37c0-.97.68-1.65,1.65-1.65h9.25v1.9Z" fill="#fff" stroke-width="0"></path>
</svg>
