<svg width="1200" height="800" xmlns="http://www.w3.org/2000/svg" viewBox="-132.429 -68.90225 1147.718 413.4135"><path fill="#1f1d1f" d="M408.387 44.937v24.137h-49.562v138.961h-28.824V69.074H280.44V44.937zm90.967 41.406v122.576h-26.245v-12.236c-3.326 3.671-15.363 14.885-37.054 14.885-16.654 0-32.087-5.71-43.374-16.106-12.371-11.427-18.967-27.473-18.967-46.435 0-47.457 37.392-64.656 62.478-64.656 19.994 0 29.846 7.343 35.556 12.847l.133.136c.684.681 1.162 1.089 1.566 1.089.272 0 .479-.272.817-2.038l.75-3.808.677-3.333c.412-2.038 1.833-2.921 4.688-2.921zm-63.909 101.569c24.339 0 38.82-15.702 38.82-41.946 0-10.47-3.466-20.124-9.721-26.992-6.592-7.273-15.635-11.081-26.174-11.081-23.795 0-39.162 15.841-39.162 40.383 0 19.101 9.521 39.636 36.237 39.636M588.757 87.226c-1.367-.953-6.399-2.789-12.036-2.789-9.043 0-25.767 1.835-36.311 14.211-.677.813-1.155 1.155-1.56 1.155-.14 0-.339-.206-.545-1.155l-1.155-4.83-1.016-4.485c-.544-2.108-1.905-2.925-4.693-2.925h-17.747v122.584h26.172v-67.587c0-22.497 10.955-33.445 33.521-33.445 1.361 0 2.171.07 2.788.206l.545.066h.205l12.097-20.734zm45.478 113.4c38.819 0 56.832 10.875 56.832 34.192 0 24.751-24.95 40.791-63.497 40.791-33.515 0-54.322-12.847-54.322-33.448 0-11.691 5.849-20.734 17.342-26.849-8.365-4.289-12.442-10.609-12.442-19.38 0-8.903 4.754-16.592 14.208-22.772-9.381-9.521-14.818-22.169-14.818-34.81 0-15.775 5.776-29.372 16.585-39.228 10.064-9.179 23.529-14.208 38.002-14.208 8.977 0 17.408 1.902 24.95 5.64 7.276-4.076 15.908-6.048 26.518-6.048 5.643 0 11.015.883 14.818 2.446l.278.136-12.11 21.416h-.199a38.733 38.733 0 00-6.254-.544l-3.333.136a52.18 52.18 0 018.564 28.691c0 13.872-5.099 26.786-14.341 36.373-9.998 10.403-23.795 15.834-39.842 15.834-8.159 0-15.907-1.627-23.045-4.82-2.854 2.039-4.288 4.621-4.288 7.821.073 7.198 11.699 8.631 30.394 8.631m28.961 35.693c0-8.631-6.732-11.492-31.338-13.464l-3.943-.266c-5.511-.412-11.22-.89-16.863-1.634-4.761 3.333-10.331 8.903-10.331 16.585 0 11.42 10.059 16.996 30.727 16.996 19.306-.066 31.748-7.21 31.748-18.217m-31.41-128.97c-13.598 0-27.6 11.081-27.6 29.71 0 17.744 10.809 30.119 26.305 30.119 8.299 0 27.672-3.134 27.672-31.888 0-13.869-9.042-27.941-26.377-27.941m251.074 2.925V86.479h-29.505V51.805h-26.789v34.74h-14.28v23.795h14.28v63.57c0 25.216 13.192 37.458 40.313 37.458 7.276 0 12.78-.677 15.502-1.979l.199-.066v-24.126l-.404.133c-3.061.884-5.982 1.494-12.582 1.494-11.685 0-16.239-5.981-16.239-21.278V110.41h29.505zM754.021 84.301c28.761 0 61.26 23.522 56.16 69.413h-89.676c1.979 24.884 16.798 35.214 34.404 35.214 19.374 0 26.717-11.618 30.05-18.557h25.627c-1.493 16.047-20.801 40.857-58.664 40.857-34.61 0-58.544-28.415-58.544-62.269 0-48.272 35.221-64.658 60.643-64.658m28.893 48.34c-1.155-12.714-10.669-26.311-28.416-26.311-13.936 0-27.938 6.457-32.559 26.311z"/><path fill="#ba0000" d="M126.995 0C56.835 0 0 56.835 0 126.928c0 70.094 56.835 126.998 126.995 126.998 70.163 0 126.931-56.832 126.931-126.998C253.926 56.768 197.088 0 126.995 0m0 209.463c-45.548 0-82.532-36.987-82.532-82.535 0-45.548 36.914-82.535 82.532-82.535 45.618 0 82.535 36.987 82.535 82.535 0 45.614-36.984 82.535-82.535 82.535m0-123.801c22.776 0 41.269 18.49 41.269 41.266 0 22.775-18.493 41.272-41.269 41.272-22.772 0-41.266-18.497-41.266-41.272 0-22.776 18.493-41.266 41.266-41.266"/></svg>