<svg xmlns="http://www.w3.org/2000/svg" width="1200" height="800" viewBox="-266.7798 -42.85725 2312.0916 257.1435"><path d="M86.079 34.898v132.755H50.888V34.898H0v-32.3h136.967v32.3zm359.886 84.77a76.371 76.371 0 01-15.064 26.881 68.072 68.072 0 01-24.179 17.449q-14.307 6.246-32.533 6.249-18.226.003-32.533-6.249a68.037 68.037 0 01-24.178-17.449 76.309 76.309 0 01-15.064-26.881 117.559 117.559 0 010-69.089 76.384 76.384 0 0115.064-26.882 68.135 68.135 0 0124.178-17.449Q355.956.003 374.189 0q18.233-.003 32.533 6.248A68.17 68.17 0 01430.9 23.697a76.446 76.446 0 0115.064 26.882 117.559 117.559 0 01.001 69.089zm-33.543-55.177a48.33 48.33 0 00-7.215-16.624 34.744 34.744 0 00-12.659-11.083 39.382 39.382 0 00-18.355-4.008q-10.633 0-18.355 4.008a34.7 34.7 0 00-12.659 11.083 48.33 48.33 0 00-7.215 16.624 94.536 94.536 0 000 41.265 48.338 48.338 0 007.215 16.624 34.657 34.657 0 0012.659 11.082q7.719 4.012 18.355 4.009 10.636-.003 18.355-4.009a34.7 34.7 0 0012.659-11.082 48.338 48.338 0 007.215-16.624 94.536 94.536 0 000-41.265zM764.33 79.582a44.909 44.909 0 01-13.418 16.86 56.374 56.374 0 01-20.38 9.668 100.72 100.72 0 01-25.444 3.065h-38.992v58.478h-35.191V2.593h77.217a85.3 85.3 0 0123.545 3.184 55.823 55.823 0 0119.494 9.785 47.089 47.089 0 0113.165 16.388q4.806 9.788 4.811 22.991.001 14.385-4.81 24.641zm-38.608-39.665q-6.966-5.012-18.861-5.014h-40.765v41.972h41.267q25.314 0 25.318-21.218 0-10.731-6.959-15.74zm351.27 127.736v-60.6q0-3.3.13-8.489c.08-3.456.13-6.993.13-10.611 0-3.618.04-6.993.12-10.139.08-3.146.13-5.5.13-7.074q-2.025 4.719-5.44 12.5-3.415 7.781-6.97 14.855l-35.95 73.334-35.95-73.334q-3.54-7.074-6.96-14.855-3.42-7.781-5.44-12.5 0 2.359.12 7.074.135 4.719.13 10.139-.01 5.42.13 10.611.12 5.19.12 8.489v60.6h-34.68V2.593h34.18l36.96 74.749q1.77 3.537 3.54 7.428t3.42 7.663q1.65 3.775 3.04 7.074 1.39 3.299 2.15 5.424 1.77-4.715 5.07-12.616 3.285-7.9 6.83-14.973l35.7-74.749h34.94v165.06zm342.54 0l-13.92-36.784h-64.81l-13.93 36.784h-37.97l67.85-165.06h34.43l67.34 165.06zm-37.47-98.092q-2.79-7.306-5.19-14.148-2.4-6.842-3.67-11.555-1.26 4.721-3.67 11.555t-5.19 14.148l-11.39 29.946h40.51zm364.9 98.092l-64.91-90.075q-3.285-4.714-6.95-10.022a95.916 95.916 0 01-5.43-8.606q0 2.359.13 6.956t.12 10.021q0 5.19.13 10.375c.08 3.46.13 6.367.13 8.725v72.626h-35.2V2.593h34.18l62.37 87.246q3.27 4.721 6.91 10.022a97.657 97.657 0 015.41 8.607q0-2.355-.13-6.957c-.09-3.065-.12-6.326-.12-9.785 0-3.615-.05-7.152-.13-10.611-.08-3.459-.13-6.367-.13-8.725V2.59h35.19v165.06h-31.57z" fill-rule="evenodd"/></svg>